<svg width="390" height="792" viewBox="0 0 390 792" fill="none" xmlns="http://www.w3.org/2000/svg">
<g opacity="0.2" clip-path="url(#clip0_342_8048)">
<rect width="39" height="39" transform="matrix(1 0 0 -1 0 792)" fill="black" fill-opacity="0.394803"/>
<rect width="39" height="39" transform="matrix(1 0 0 -1 39 792)" fill="#07B979" fill-opacity="0.501689"/>
<rect width="39" height="39" transform="matrix(1 0 0 -1 78 792)" fill="#07B979" fill-opacity="0.862476"/>
<rect width="39" height="39" transform="matrix(1 0 0 -1 195 792)" fill="black" fill-opacity="0.430622"/>
<rect width="39" height="39" transform="matrix(1 0 0 -1 234 792)" fill="#07B979" fill-opacity="0.853323"/>
<rect width="39" height="39" transform="matrix(1 0 0 -1 312 792)" fill="#07B979" fill-opacity="0.793158"/>
<rect width="39" height="39" transform="matrix(1 0 0 -1 0 753)" fill="#07B979" fill-opacity="0.786426"/>
<rect width="39" height="39" transform="matrix(1 0 0 -1 0 753)" fill="#07B979" fill-opacity="0.786426"/>
<rect width="39" height="39" transform="matrix(1 0 0 -1 78 753)" fill="#07B979" fill-opacity="0.640446"/>
<rect width="39" height="39" transform="matrix(1 0 0 -1 156 753)" fill="#07B979" fill-opacity="0.717907"/>
<rect width="39" height="39" transform="matrix(1 0 0 -1 234 753)" fill="#07B979" fill-opacity="0.562844"/>
<rect width="39" height="39" transform="matrix(1 0 0 -1 273 753)" fill="black" fill-opacity="0.374795"/>
<rect width="39" height="39" transform="matrix(1 0 0 -1 351 753)" fill="#07B979" fill-opacity="0.682799"/>
<rect width="39" height="39" transform="matrix(1 0 0 -1 0 714)" fill="#07B979" fill-opacity="0.881473"/>
<rect width="39" height="39" transform="matrix(1 0 0 -1 78 714)" fill="#07B979" fill-opacity="0.68467"/>
<rect width="39" height="39" transform="matrix(1 0 0 -1 117 714)" fill="black" fill-opacity="0.233558"/>
<rect width="39" height="39" transform="matrix(1 0 0 -1 156 714)" fill="black" fill-opacity="0.319893"/>
<rect width="39" height="39" transform="matrix(1 0 0 -1 234 714)" fill="#07B979" fill-opacity="0.682116"/>
<rect width="39" height="39" transform="matrix(1 0 0 -1 273 714)" fill="black" fill-opacity="0.210466"/>
<rect width="39" height="39" transform="matrix(1 0 0 -1 312 714)" fill="#07B979" fill-opacity="0.970415"/>
<rect width="39" height="39" transform="matrix(1 0 0 -1 351 714)" fill="#07B979" fill-opacity="0.852217"/>
<rect width="39" height="39" transform="matrix(1 0 0 -1 39 675)" fill="#07B979" fill-opacity="0.812075"/>
<rect width="39" height="39" transform="matrix(1 0 0 -1 78 675)" fill="black" fill-opacity="0.395067"/>
<rect width="39" height="39" transform="matrix(1 0 0 -1 156 675)" fill="black" fill-opacity="0.299752"/>
<rect width="39" height="39" transform="matrix(1 0 0 -1 195 675)" fill="#07B979" fill-opacity="0.737471"/>
<rect width="39" height="39" transform="matrix(1 0 0 -1 234 675)" fill="black" fill-opacity="0.435681"/>
<rect width="39" height="39" transform="matrix(1 0 0 -1 78 636)" fill="#07B979" fill-opacity="0.493044"/>
<rect width="39" height="39" transform="matrix(1 0 0 -1 156 636)" fill="#07B979" fill-opacity="0.778418"/>
<rect width="39" height="39" transform="matrix(1 0 0 -1 195 636)" fill="black" fill-opacity="0.274921"/>
<rect width="39" height="39" transform="matrix(1 0 0 -1 273 636)" fill="#07B979" fill-opacity="0.575492"/>
<rect width="39" height="39" transform="matrix(1 0 0 -1 39 597)" fill="#07B979" fill-opacity="0.619875"/>
<rect width="39" height="39" transform="matrix(1 0 0 -1 117 597)" fill="#07B979" fill-opacity="0.89929"/>
<rect width="39" height="39" transform="matrix(1 0 0 -1 117 558)" fill="#07B979" fill-opacity="0.549316"/>
<rect width="39" height="39" transform="matrix(1 0 0 -1 156 558)" fill="black" fill-opacity="0.353125"/>
<rect width="39" height="39" transform="matrix(1 0 0 -1 78 519)" fill="#07B979" fill-opacity="0.681031"/>
<rect width="39" height="39" transform="matrix(1 0 0 -1 117 519)" fill="#07B979" fill-opacity="0.793481"/>
<rect width="39" height="39" transform="matrix(1 0 0 -1 156 519)" fill="#07B979" fill-opacity="0.85166"/>
<rect width="39" height="39" transform="matrix(1 0 0 -1 234 519)" fill="#07B979" fill-opacity="0.646791"/>
<rect width="39" height="39" transform="matrix(1 0 0 -1 39 480)" fill="#07B979" fill-opacity="0.980348"/>
<rect width="39" height="39" transform="matrix(1 0 0 -1 78 480)" fill="#07B979" fill-opacity="0.969244"/>
<rect width="39" height="39" transform="matrix(1 0 0 -1 117 480)" fill="black" fill-opacity="0.404727"/>
<rect width="39" height="39" transform="matrix(1 0 0 -1 273 480)" fill="#07B979" fill-opacity="0.486989"/>
<rect width="39" height="39" transform="matrix(1 0 0 -1 78 441)" fill="#07B979" fill-opacity="0.942924"/>
<rect width="39" height="39" transform="matrix(1 0 0 -1 39 363)" fill="black" fill-opacity="0.379342"/>
<rect width="39" height="39" transform="matrix(1 0 0 -1 195 363)" fill="black" fill-opacity="0.343786"/>
<rect width="39" height="39" transform="matrix(1 0 0 -1 156 324)" fill="black" fill-opacity="0.409804"/>
<rect width="39" height="39" transform="matrix(1 0 0 -1 351 246)" fill="black" fill-opacity="0.298511"/>
<rect width="39" height="39" transform="matrix(1 0 0 -1 0 285)" fill="#07B979" fill-opacity="0.526426"/>
<rect width="39" height="39" transform="matrix(1 0 0 -1 312 285)" fill="black" fill-opacity="0.379123"/>
<rect width="39" height="39" transform="matrix(1 0 0 -1 200 168)" fill="#07B979" fill-opacity="0.793342"/>
</g>
<defs>
<clipPath id="clip0_342_8048">
<rect width="390" height="792" fill="white" transform="matrix(1 0 0 -1 0 792)"/>
</clipPath>
</defs>
</svg>
